<svg version="1.2" xmlns="http://www.w3.org/2000/svg" viewBox="0 0 288 288" width="288" height="288"><style>.a{fill:#fff}.b{fill:#2d6cdf}.c{fill:#46c3db}</style><path class="a" d="m185.9 81.2h-21v-10.5c0-1.4-0.2-2.7-0.8-4-0.5-1.3-1.2-2.4-2.2-3.4-1-1-2.1-1.8-3.4-2.3-1.3-0.5-2.7-0.8-4-0.8h-21c-1.3 0-2.7 0.3-4 0.8-1.3 0.5-2.4 1.3-3.4 2.3-1 1-1.7 2.1-2.2 3.4-0.6 1.3-0.8 2.6-0.8 4v10.5h-21c-2.1 0-4.1 0.4-6 1.2-1.9 0.7-3.6 1.9-5.1 3.4-1.5 1.4-2.6 3.2-3.4 5.1-0.8 1.9-1.2 3.9-1.2 6v115.2c0 2 0.4 4.1 1.2 6 0.8 1.9 1.9 3.6 3.4 5.1 1.5 1.4 3.2 2.6 5.1 3.4 1.9 0.8 3.9 1.2 6 1.2h83.8c2.1 0 4.1-0.4 6-1.2 1.9-0.8 3.6-2 5.1-3.4 1.5-1.5 2.6-3.2 3.4-5.1 0.8-1.9 1.2-4 1.2-6v-115.2c0-2.1-0.4-4.1-1.2-6-0.8-1.9-1.9-3.7-3.4-5.1-1.5-1.5-3.2-2.7-5.1-3.4-1.9-0.8-3.9-1.2-6-1.2z"/><path class="b" d="m191.1 212.1q0 1-0.4 2-0.4 0.9-1.1 1.7-0.7 0.7-1.7 1.1-1 0.4-2 0.4h-83.8q-1 0-2-0.4-1-0.4-1.7-1.1-0.7-0.8-1.1-1.7-0.4-1-0.4-2v-115.2q0-1.1 0.4-2 0.4-1 1.1-1.7 0.7-0.8 1.7-1.2 1-0.4 2-0.4h83.8q1 0 2 0.4 1 0.4 1.7 1.2 0.7 0.7 1.1 1.7 0.4 0.9 0.4 2z"/><path class="c" d="m144 91.6h-41.9q-1 0-2 0.4-1 0.4-1.7 1.2-0.7 0.7-1.1 1.7-0.4 0.9-0.4 2v115.2q0 1 0.4 2 0.4 0.9 1.1 1.7 0.7 0.7 1.7 1.1 1 0.4 2 0.4h41.9z"/><path class="a" d="m164.9 112.3l-51 51h25.5l-8.5 34 51.1-51h-25.6z"/></svg>